# xmcd CD database file
#
# Track frame offsets:
#	150
#	15275
#	29562
#	42957
#	61125
#	74575
#	86185
#	101312
#	113552
#	123962
#	135850
#	151167
#	160645
#	173837
#	184420
#	198250
#	209625
#	226700
#
# Disc length: 3234 seconds
#
# Revision: 1
# Processed by: cddbd v1.5.2PL0 Copyright (c) Steve Scherf et al.
# Submitted via: CDex 1.51
#
DISCID=e20ca012
DTITLE=Various Artist - Greatest Hist Blitz Country 2002
DYEAR=2002
DGENRE=Country
TTITLE0=Kathy Mattea - Eighteen Wheels and a Dozen Roses
TTITLE1=Lee Greenwood - God Bless the USA
TTITLE2=Terri Gibbs - Sombody's Knockin'
TTITLE3=Don Williams - I Believe in You
TTITLE4=Loretta Lynn - Coal Miner's Daughter
TTITLE5=Patsy Cline - Walkin' After Midnight
TTITLE6=Tommy Roe - Stagger Lee
TTITLE7=Freddy Fender - Wasted Days and Wasted Nights
TTITLE8=Barbara Mandrell - Sleeping Single in a Double Bed
TTITLE9=The Oak Ridge Boys - American Made
TTITLE10=Billy Ray Cyrus - Achy Breaky Heart
TTITLE11=Tom T. Hall - I Love
TTITLE12=Poco - Crazy Love
TTITLE13=Roger Miller - King of the Road
TTITLE14=Jim Stafford - Siders and Snakes
TTITLE15=Donna Fargo - The Happiest Girl in the Whole USA
TTITLE16=Rick Nelson - Garden Party
TTITLE17=Conway Twitty and Loretta Lynn - Country Bumpkin
EXTD=YEAR: 2002
EXTT0=
EXTT1=
EXTT2=
EXTT3=
EXTT4=
EXTT5=
EXTT6=
EXTT7=
EXTT8=
EXTT9=
EXTT10=
EXTT11=
EXTT12=
EXTT13=
EXTT14=
EXTT15=
EXTT16=
EXTT17=
PLAYORDER=
